<svg xmlns="http://www.w3.org/2000/svg" viewBox="0 0 100 100"><defs><filter id="ri" x="-30%" y="-30%" width="160%" height="160%"><feTurbulence type="fractalNoise" baseFrequency="0.021" numOctaves="2" seed="108" result="n"></feTurbulence><feDisplacementMap in="SourceGraphic" in2="n" scale="2.7" xChannelSelector="R" yChannelSelector="G"></feDisplacementMap></filter><filter id="rf" x="-30%" y="-30%" width="160%" height="160%"><feTurbulence type="fractalNoise" baseFrequency="0.015" numOctaves="2" seed="121" result="n"></feTurbulence><feDisplacementMap in="SourceGraphic" in2="n" scale="4.4" xChannelSelector="R" yChannelSelector="G"></feDisplacementMap></filter></defs><g transform="rotate(-2 50 50)"><g filter="url(#rf)" transform="translate(1.6 2.2)" opacity="0.9" stroke="none"><rect x="20" y="20" width="17" height="17" rx="2" fill="#F7931A"></rect><rect x="63" y="20" width="17" height="17" rx="2" fill="#F7931A"></rect><rect x="20" y="63" width="17" height="17" rx="2" fill="#F7931A"></rect></g><g filter="url(#ri)" fill="none" stroke="#241f1a" stroke-width="3.1" stroke-linecap="round" stroke-linejoin="round"><rect x="20" y="20" width="17" height="17" rx="2"></rect><rect x="25 " y="25" width="7" height="7" rx="1"></rect><rect x="63" y="20" width="17" height="17" rx="2"></rect><rect x="68 " y="25" width="7" height="7" rx="1"></rect><rect x="20" y="63" width="17" height="17" rx="2"></rect><rect x="25 " y="68" width="7" height="7" rx="1"></rect><rect x="44" y="22" width="6" height="6" rx="1" fill="#241f1a"></rect><rect x="54" y="22" width="6" height="6" rx="1" fill="#241f1a"></rect><rect x="44" y="32" width="6" height="6" rx="1" fill="#241f1a"></rect><rect x="64" y="42" width="6" height="6" rx="1" fill="#241f1a"></rect><rect x="44" y="52" width="6" height="6" rx="1" fill="#241f1a"></rect><rect x="54" y="62" width="6" height="6" rx="1" fill="#241f1a"></rect><rect x="64" y="62" width="6" height="6" rx="1" fill="#241f1a"></rect><rect x="44" y="64" width="6" height="6" rx="1" fill="#241f1a"></rect><rect x="64" y="52" width="6" height="6" rx="1" fill="#241f1a"></rect><rect x="54" y="44" width="6" height="6" rx="1" fill="#241f1a"></rect></g></g></svg>