<svg xmlns="http://www.w3.org/2000/svg" viewBox="0 0 100 100"><defs><filter id="ri" x="-30%" y="-30%" width="160%" height="160%"><feTurbulence type="fractalNoise" baseFrequency="0.021" numOctaves="2" seed="210" result="n"></feTurbulence><feDisplacementMap in="SourceGraphic" in2="n" scale="2.7" xChannelSelector="R" yChannelSelector="G"></feDisplacementMap></filter><filter id="rf" x="-30%" y="-30%" width="160%" height="160%"><feTurbulence type="fractalNoise" baseFrequency="0.015" numOctaves="2" seed="223" result="n"></feTurbulence><feDisplacementMap in="SourceGraphic" in2="n" scale="4.4" xChannelSelector="R" yChannelSelector="G"></feDisplacementMap></filter></defs><g transform="rotate(-3 50 50)"><g filter="url(#rf)" transform="translate(1.6 2.2)" opacity="0.9" stroke="none"><ellipse cx="50" cy="46" rx="33" ry="25" fill="#F7931A"></ellipse><path d="M17 46 L17 56 A33 25 0 0 0 83 56 L83 46" fill="#ddb43f"></path></g><g filter="url(#ri)" fill="none" stroke="#241f1a" stroke-width="3.1" stroke-linecap="round" stroke-linejoin="round"><ellipse cx="50" cy="46" rx="33" ry="25"></ellipse><path d="M17 46 L17 56 A33 25 0 0 0 83 56 L83 46"></path><g transform="translate(50 46) scale(0.62) translate(-50 -50)"><g transform="translate(50 50) scale(1) translate(-50 -50)"><path d="M45 30 L45 74"></path><path d="M43 25 L43 30"></path><path d="M55 25 L55 30"></path><path d="M43 74 L43 79"></path><path d="M55 74 L55 79"></path><path d="M45 31 C68 31,68 51,45 51"></path><path d="M45 51 C71 51,71 73,45 73"></path></g></g></g></g></svg>