<svg xmlns="http://www.w3.org/2000/svg" viewBox="0 0 100 100"><defs><filter id="ri" x="-30%" y="-30%" width="160%" height="160%"><feTurbulence type="fractalNoise" baseFrequency="0.021" numOctaves="2" seed="618" result="n"></feTurbulence><feDisplacementMap in="SourceGraphic" in2="n" scale="2.7" xChannelSelector="R" yChannelSelector="G"></feDisplacementMap></filter><filter id="rf" x="-30%" y="-30%" width="160%" height="160%"><feTurbulence type="fractalNoise" baseFrequency="0.015" numOctaves="2" seed="631" result="n"></feTurbulence><feDisplacementMap in="SourceGraphic" in2="n" scale="4.4" xChannelSelector="R" yChannelSelector="G"></feDisplacementMap></filter></defs><g transform="rotate(-2 50 50)"><g filter="url(#rf)" transform="translate(1.6 2.2)" opacity="0.9" stroke="none"><path d="M50 16 C64 28, 66 50, 58 64 L42 64 C34 50, 36 28, 50 16 Z" fill="#F7931A"></path></g><g filter="url(#ri)" fill="none" stroke="#241f1a" stroke-width="3.1" stroke-linecap="round" stroke-linejoin="round"><path d="M50 16 C64 28, 66 50, 58 64 L42 64 C34 50, 36 28, 50 16 Z"></path><circle cx="50" cy="40" r="6"></circle><path d="M42 64 L34 74 L42 70"></path><path d="M58 64 L66 74 L58 70"></path><path d="M46 70 C46 80, 54 80, 54 70" stroke="#c0532f"></path></g></g></svg>