<svg xmlns="http://www.w3.org/2000/svg" viewBox="0 0 100 100"><defs><filter id="ri" x="-30%" y="-30%" width="160%" height="160%"><feTurbulence type="fractalNoise" baseFrequency="0.021" numOctaves="2" seed="560" result="n"></feTurbulence><feDisplacementMap in="SourceGraphic" in2="n" scale="2.7" xChannelSelector="R" yChannelSelector="G"></feDisplacementMap></filter><filter id="rf" x="-30%" y="-30%" width="160%" height="160%"><feTurbulence type="fractalNoise" baseFrequency="0.015" numOctaves="2" seed="573" result="n"></feTurbulence><feDisplacementMap in="SourceGraphic" in2="n" scale="4.4" xChannelSelector="R" yChannelSelector="G"></feDisplacementMap></filter></defs><g transform="rotate(2 50 50)"><g filter="url(#rf)" transform="translate(1.6 2.2)" opacity="0.9" stroke="none"><circle cx="50" cy="26" r="11" fill="#ddb43f"></circle><rect x="22" y="48" width="56" height="34" rx="7" fill="#F7931A"></rect></g><g filter="url(#ri)" fill="none" stroke="#241f1a" stroke-width="3.1" stroke-linecap="round" stroke-linejoin="round"><circle cx="50" cy="26" r="11"></circle><g transform="translate(50 26) scale(0.24) translate(-50 -50)"><path d="M45 30 L45 74"></path><path d="M43 25 L43 30"></path><path d="M55 25 L55 30"></path><path d="M43 74 L43 79"></path><path d="M55 74 L55 79"></path><path d="M45 31 C68 31,68 51,45 51"></path><path d="M45 51 C71 51,71 73,45 73"></path></g><path d="M50 38 L50 46"></path><path d="M44 42 L50 48 L56 42"></path><rect x="22" y="48" width="56" height="34" rx="7"></rect><path d="M22 60 L78 60"></path></g></g></svg>