<svg xmlns="http://www.w3.org/2000/svg" viewBox="0 0 100 100"><defs><filter id="ri" x="-30%" y="-30%" width="160%" height="160%"><feTurbulence type="fractalNoise" baseFrequency="0.021" numOctaves="2" seed="306" result="n"></feTurbulence><feDisplacementMap in="SourceGraphic" in2="n" scale="2.7" xChannelSelector="R" yChannelSelector="G"></feDisplacementMap></filter><filter id="rf" x="-30%" y="-30%" width="160%" height="160%"><feTurbulence type="fractalNoise" baseFrequency="0.015" numOctaves="2" seed="319" result="n"></feTurbulence><feDisplacementMap in="SourceGraphic" in2="n" scale="4.4" xChannelSelector="R" yChannelSelector="G"></feDisplacementMap></filter></defs><g transform="rotate(-2 50 50)"><g filter="url(#rf)" transform="translate(1.6 2.2)" opacity="0.9" stroke="none"><circle cx="50" cy="22" r="6" fill="#F7931A"></circle><circle cx="30" cy="48" r="5.5" fill="#ddb43f"></circle><circle cx="70" cy="48" r="5.5" fill="#ddb43f"></circle><circle cx="20" cy="74" r="5" fill="#5f87a0"></circle><circle cx="40" cy="74" r="5" fill="#5f87a0"></circle><circle cx="60" cy="74" r="5" fill="#5f87a0"></circle><circle cx="80" cy="74" r="5" fill="#5f87a0"></circle></g><g filter="url(#ri)" fill="none" stroke="#241f1a" stroke-width="3.1" stroke-linecap="round" stroke-linejoin="round"><path d="M50 22 L30 48"></path><path d="M50 22 L70 48"></path><path d="M30 48 L20 74"></path><path d="M30 48 L40 74"></path><path d="M70 48 L60 74"></path><path d="M70 48 L80 74"></path><circle cx="50" cy="22" r="6"></circle><circle cx="30" cy="48" r="5.5"></circle><circle cx="70" cy="48" r="5.5"></circle><circle cx="20" cy="74" r="5"></circle><circle cx="40" cy="74" r="5"></circle><circle cx="60" cy="74" r="5"></circle><circle cx="80" cy="74" r="5"></circle></g></g></svg>