<svg xmlns="http://www.w3.org/2000/svg" viewBox="0 0 100 100"><defs><filter id="ri" x="-30%" y="-30%" width="160%" height="160%"><feTurbulence type="fractalNoise" baseFrequency="0.021" numOctaves="2" seed="426" result="n"></feTurbulence><feDisplacementMap in="SourceGraphic" in2="n" scale="2.7" xChannelSelector="R" yChannelSelector="G"></feDisplacementMap></filter><filter id="rf" x="-30%" y="-30%" width="160%" height="160%"><feTurbulence type="fractalNoise" baseFrequency="0.015" numOctaves="2" seed="439" result="n"></feTurbulence><feDisplacementMap in="SourceGraphic" in2="n" scale="4.4" xChannelSelector="R" yChannelSelector="G"></feDisplacementMap></filter></defs><g transform="rotate(-2 50 50)"><g filter="url(#rf)" transform="translate(1.6 2.2)" opacity="0.9" stroke="none"><rect x="14" y="30" width="30" height="22" rx="3" fill="#5f87a0"></rect><rect x="56" y="48" width="30" height="22" rx="3" fill="#F7931A"></rect></g><g filter="url(#ri)" fill="none" stroke="#241f1a" stroke-width="3.1" stroke-linecap="round" stroke-linejoin="round"><rect x="14" y="30" width="30" height="22" rx="3"></rect><path d="M24 52 L24 58 L34 58 L34 52"></path><rect x="56" y="48" width="30" height="22" rx="3"></rect><path d="M66 70 L66 76 L76 76 L76 70"></path><path d="M44 41 L56 59"></path><path d="M50 44 L44 41 L47 49"></path><path d="M50 56 L56 59 L53 51"></path></g></g></svg>